REM DIRINDEX 1\2\4,1\2\5,1\2\6,1\3\7,1\3\8
REM DIRNAME cjc128,folder01,folder02,folder03,folder04,folder05,folder06,folder07
TITLE ""
FILE "026_Lesson 22_Output_Stage.mp3" MP3
  TRACK 01 AUDIO
    TITLE "0:"
    INDEX 01 00:00:00
  TRACK 02 AUDIO
    TITLE "8:cjc128_3482"
    INDEX 01 00:00:11
  TRACK 03 AUDIO
    TITLE "0:"
    INDEX 01 00:03:37
  TRACK 04 AUDIO
    TITLE "8:cjc128_3483"
    INDEX 01 00:04:11
  TRACK 05 AUDIO
    TITLE "0:"
    INDEX 01 00:06:06
  TRACK 06 AUDIO
    TITLE "7:cjc128_3484"
    INDEX 01 00:07:00
  TRACK 07 AUDIO
    TITLE "0:"
    INDEX 01 00:09:71
  TRACK 08 AUDIO
    TITLE "8:cjc128_3485"
    INDEX 01 00:13:57
  TRACK 09 AUDIO
    TITLE "0:"
    INDEX 01 00:15:52
  TRACK 10 AUDIO
    TITLE "7:cjc128_3486"
    INDEX 01 00:16:42
  TRACK 11 AUDIO
    TITLE "0:"
    INDEX 01 00:20:41
  TRACK 12 AUDIO
    TITLE "8:cjc128_3487"
    INDEX 01 00:25:17
  TRACK 13 AUDIO
    TITLE "0:"
    INDEX 01 00:26:67
  TRACK 14 AUDIO
    TITLE "7:cjc128_3488"
    INDEX 01 00:27:61
  TRACK 15 AUDIO
    TITLE "0:"
    INDEX 01 00:31:22
  TRACK 16 AUDIO
    TITLE "8:cjc128_3489"
    INDEX 01 00:35:47
  TRACK 17 AUDIO
    TITLE "0:"
    INDEX 01 00:37:44
  TRACK 18 AUDIO
    TITLE "7:cjc128_3490"
    INDEX 01 00:38:37
  TRACK 19 AUDIO
    TITLE "0:"
    INDEX 01 00:41:63
  TRACK 20 AUDIO
    TITLE "8:cjc128_3491"
    INDEX 01 00:45:61
  TRACK 21 AUDIO
    TITLE "0:"
    INDEX 01 00:47:70
  TRACK 22 AUDIO
    TITLE "7:cjc128_3492"
    INDEX 01 00:48:65
  TRACK 23 AUDIO
    TITLE "0:"
    INDEX 01 00:52:06
  TRACK 24 AUDIO
    TITLE "8:cjc128_3493"
    INDEX 01 00:55:73
  TRACK 25 AUDIO
    TITLE "0:"
    INDEX 01 00:57:70
  TRACK 26 AUDIO
    TITLE "7:cjc128_3494"
    INDEX 01 00:58:64
  TRACK 27 AUDIO
    TITLE "0:"
    INDEX 01 01:01:62
  TRACK 28 AUDIO
    TITLE "8:cjc128_3495"
    INDEX 01 01:05:44
  TRACK 29 AUDIO
    TITLE "0:"
    INDEX 01 01:07:49
  TRACK 30 AUDIO
    TITLE "7:cjc128_3496"
    INDEX 01 01:08:50
  TRACK 31 AUDIO
    TITLE "0:"
    INDEX 01 01:11:41
  TRACK 32 AUDIO
    TITLE "8:cjc128_3497"
    INDEX 01 01:15:27
  TRACK 33 AUDIO
    TITLE "0:"
    INDEX 01 01:17:37
  TRACK 34 AUDIO
    TITLE "7:cjc128_3498"
    INDEX 01 01:18:23
  TRACK 35 AUDIO
    TITLE "0:"
    INDEX 01 01:20:32
  TRACK 36 AUDIO
    TITLE "8:cjc128_3499"
    INDEX 01 01:23:30
  TRACK 37 AUDIO
    TITLE "0:"
    INDEX 01 01:25:33
  TRACK 38 AUDIO
    TITLE "7:cjc128_3500"
    INDEX 01 01:26:23
  TRACK 39 AUDIO
    TITLE "0:"
    INDEX 01 01:29:48
  TRACK 40 AUDIO
    TITLE "8:cjc128_3501"
    INDEX 01 01:33:58
  TRACK 41 AUDIO
    TITLE "0:"
    INDEX 01 01:35:55
  TRACK 42 AUDIO
    TITLE "7:cjc128_3502"
    INDEX 01 01:36:52
  TRACK 43 AUDIO
    TITLE "0:"
    INDEX 01 01:39:39
  TRACK 44 AUDIO
    TITLE "8:cjc128_3503"
    INDEX 01 01:43:17
  TRACK 45 AUDIO
    TITLE "0:"
    INDEX 01 01:45:08
  TRACK 46 AUDIO
    TITLE "7:cjc128_3504"
    INDEX 01 01:46:06
  TRACK 47 AUDIO
    TITLE "0:"
    INDEX 01 01:48:50
  TRACK 48 AUDIO
    TITLE "8:cjc128_3505"
    INDEX 01 01:52:14
  TRACK 49 AUDIO
    TITLE "0:"
    INDEX 01 01:54:13
  TRACK 50 AUDIO
    TITLE "7:cjc128_3506"
    INDEX 01 01:55:05
  TRACK 51 AUDIO
    TITLE "0:"
    INDEX 01 01:57:57
  TRACK 52 AUDIO
    TITLE "8:cjc128_3507"
    INDEX 01 02:01:19
  TRACK 53 AUDIO
    TITLE "0:"
    INDEX 01 02:02:66
  TRACK 54 AUDIO
    TITLE "7:cjc128_3508"
    INDEX 01 02:03:63
  TRACK 55 AUDIO
    TITLE "0:"
    INDEX 01 02:06:61
  TRACK 56 AUDIO
    TITLE "8:cjc128_3509"
    INDEX 01 02:10:51
  TRACK 57 AUDIO
    TITLE "0:"
    INDEX 01 02:12:38
  TRACK 58 AUDIO
    TITLE "7:cjc128_3510"
    INDEX 01 02:13:36
  TRACK 59 AUDIO
    TITLE "0:"
    INDEX 01 02:15:68
  TRACK 60 AUDIO
    TITLE "8:cjc128_3511"
    INDEX 01 02:19:11
  TRACK 61 AUDIO
    TITLE "0:"
    INDEX 01 02:21:02
  TRACK 62 AUDIO
    TITLE "7:cjc128_3512"
    INDEX 01 02:22:02
  TRACK 63 AUDIO
    TITLE "0:"
    INDEX 01 02:24:46
  TRACK 64 AUDIO
    TITLE "8:cjc128_3513"
    INDEX 01 02:28:00
  TRACK 65 AUDIO
    TITLE "0:"
    INDEX 01 02:29:66
  TRACK 66 AUDIO
    TITLE "7:cjc128_3514"
    INDEX 01 02:30:60
  TRACK 67 AUDIO
    TITLE "0:"
    INDEX 01 02:33:13
  TRACK 68 AUDIO
    TITLE "8:cjc128_3515"
    INDEX 01 02:36:15
  TRACK 69 AUDIO
    TITLE "0:"
    INDEX 01 02:38:12
  TRACK 70 AUDIO
    TITLE "7:cjc128_3516"
    INDEX 01 02:39:10
  TRACK 71 AUDIO
    TITLE "0:"
    INDEX 01 02:42:06
  TRACK 72 AUDIO
    TITLE "8:cjc128_3517"
    INDEX 01 02:45:61
  TRACK 73 AUDIO
    TITLE "0:"
    INDEX 01 02:47:64
  TRACK 74 AUDIO
    TITLE "7:cjc128_3518"
    INDEX 01 02:48:50
  TRACK 75 AUDIO
    TITLE "0:"
    INDEX 01 02:51:11
  TRACK 76 AUDIO
    TITLE "8:cjc128_3519"
    INDEX 01 02:54:31
  TRACK 77 AUDIO
    TITLE "0:"
    INDEX 01 02:56:26
  TRACK 78 AUDIO
    TITLE "7:cjc128_3520"
    INDEX 01 02:57:16
  TRACK 79 AUDIO
    TITLE "0:"
    INDEX 01 02:59:56
  TRACK 80 AUDIO
    TITLE "8:cjc128_3521"
    INDEX 01 03:03:28
  TRACK 81 AUDIO
    TITLE "0:"
    INDEX 01 03:05:23
  TRACK 82 AUDIO
    TITLE "7:cjc128_3522"
    INDEX 01 03:06:17
  TRACK 83 AUDIO
    TITLE "0:"
    INDEX 01 03:08:43
  TRACK 84 AUDIO
    TITLE "8:cjc128_3523"
    INDEX 01 03:11:63
  TRACK 85 AUDIO
    TITLE "0:"
    INDEX 01 03:13:52
  TRACK 86 AUDIO
    TITLE "7:cjc128_3524"
    INDEX 01 03:14:42
  TRACK 87 AUDIO
    TITLE "0:"
    INDEX 01 03:17:22
